<svg width="42" height="50" viewBox="0 0 42 50" fill="none" xmlns="http://www.w3.org/2000/svg">
<path d="M34.0877 12.6607C34.0322 12.5724 33.9788 12.481 33.9202 12.3949C32.9806 11.0046 31.8735 9.74614 30.8606 8.41324C28.5269 5.51678 25.967 2.83929 23.2416 0.324422C22.7577 -0.122004 22.1827 -0.103934 21.6851 0.35631C20.9121 1.07272 20.1454 1.79657 19.4049 2.54592C14.5668 7.44173 10.2325 12.7308 7.07559 18.9287C6.13918 20.7676 5.31905 22.6596 4.79638 24.6695C4.59841 24.9703 4.57642 25.3285 4.49472 25.6644C3.8097 28.4907 3.51328 31.3394 4.07679 34.2294C4.7859 38.4141 6.65871 41.9622 9.72453 44.8565C9.79262 44.9224 9.86175 44.9872 9.92983 45.0521C10.3415 45.473 10.7751 45.8652 11.2758 46.1766C11.2768 46.1777 11.2768 46.1777 11.2779 46.1788C11.6476 46.4519 12.0027 46.7464 12.3871 46.9972C14.8632 48.6097 17.5593 49.5971 20.4932 49.8926C25.5533 50.4028 30.1169 49.1018 34.0888 45.8822C38.2597 42.5 40.5797 38.0549 41.0867 32.6627C41.2637 30.7898 41.1757 28.918 40.7389 27.076C39.681 21.721 37.1232 17.0782 34.0877 12.6607ZM34.734 27.3895C34.6785 27.5958 34.6858 27.8094 34.6858 28.0209C34.6837 29.898 34.689 31.7752 34.6827 33.6523C34.6806 34.2156 34.6303 34.2645 34.0888 34.273C33.3902 34.2836 32.6926 34.2794 31.9939 34.2751C31.2911 34.2709 31.2534 34.2337 31.2503 33.5258C31.244 32.2683 31.2607 31.0109 31.2429 29.7535C31.2324 29.1094 31.1005 28.9797 30.4605 28.968C29.5178 28.952 28.5762 28.9542 27.6335 28.9669C26.961 28.9765 26.8416 29.0977 26.8343 29.7822C26.8228 31.0215 26.8332 32.2609 26.8291 33.5003C26.828 33.7469 26.8584 33.9977 26.7453 34.2337C26.6039 34.4441 26.386 34.3963 26.1838 34.4048C25.7313 34.4218 25.2778 34.3676 24.8264 34.4367H24.8253H24.486C24.2052 34.3506 23.8858 34.4728 23.6103 34.3495C23.5024 34.3123 23.4082 34.256 23.3401 34.1603C23.2301 33.9467 23.2741 33.7139 23.272 33.4875C23.2542 31.0056 23.3024 28.5226 23.2437 26.0396C23.2343 26.0163 23.2249 25.9939 23.2165 25.9705V25.9695C23.2154 25.9163 23.2154 25.8632 23.2165 25.81V25.809C23.3013 25.6347 23.2657 25.4327 23.2678 25.2435C23.2741 23.9893 23.2688 22.735 23.272 21.4808C23.272 21.2724 23.229 21.0492 23.4239 20.8898C24.3718 20.6953 25.3323 20.8494 26.2854 20.7984C26.6971 20.7761 26.8395 20.9769 26.8343 21.3724C26.8249 22.0792 26.8291 22.7882 26.8332 23.4961C26.8364 24.0626 26.8154 24.6291 26.8469 25.1946C26.8626 25.4848 26.9485 25.7144 27.3056 25.708C28.264 25.691 29.2193 25.7867 30.1777 25.7899C31.1099 25.7941 31.2429 25.6591 31.2461 24.7227C31.2503 23.4015 31.2492 22.0803 31.245 20.7548C32.1039 20.8366 32.9398 20.7888 33.7746 20.7963C34.6858 20.8048 34.6858 20.7994 34.6869 21.7476C34.6879 23.3047 34.6827 24.863 34.69 26.4202C34.6921 26.6891 34.6345 26.9803 34.8534 27.2025C34.7927 27.2354 34.7602 27.3183 34.734 27.3895ZM9.97801 32.7073C10.1194 32.4639 10.0807 32.1929 10.0817 31.9303C10.0848 29.914 10.0828 27.8976 10.0828 25.8813C10.0838 25.3859 10.0932 24.8906 10.0807 24.3953C10.0712 24.0073 10.2357 23.8511 10.6128 23.867C10.9783 23.883 11.3449 23.8755 11.7105 23.8692C12.0268 23.8638 12.2939 23.9457 12.4772 24.2284C12.7129 24.5941 13.0072 24.5664 13.3319 24.357C14.9418 23.3196 16.6208 23.3536 18.3407 24.0254C18.5491 24.1062 18.745 24.2476 18.988 24.1827C18.9901 24.1753 18.9922 24.1678 18.9943 24.1615C18.9985 24.1466 19.0027 24.1328 19.0048 24.12C19.0131 24.1381 19.0194 24.1572 19.0257 24.1774C19.033 24.272 19.0844 24.3443 19.1545 24.3964C20.0627 25.0649 20.6943 25.9429 21.0902 27.0037C21.1174 27.076 21.1468 27.1504 21.2023 27.2003C21.2023 27.2046 21.2012 27.2088 21.2012 27.2131C21.2923 27.8955 21.439 28.5683 21.4118 29.2667C21.3604 30.6017 21.0033 31.8517 20.115 32.8274C18.4842 34.6206 16.4522 35.0192 14.1887 34.29C13.4502 34.0519 13.3214 34.1433 13.3947 34.931C13.5068 35.861 13.423 36.7953 13.444 37.7275C13.4471 37.8636 13.3843 37.9624 13.2795 38.0389C12.451 38.1792 11.6141 38.0836 10.7803 38.0995C10.1466 38.1123 10.0974 38.0517 10.0943 37.4065C10.088 36.098 10.0974 34.7907 10.088 33.4822C10.0869 33.226 10.1414 32.9433 9.89841 32.7456C9.89003 32.7339 9.88165 32.7222 9.87432 32.7105C9.88165 32.7105 9.89003 32.7116 9.89841 32.7116C9.9225 32.7126 9.94868 32.7105 9.97801 32.7073ZM39.0997 23.6948C39.1081 23.6831 39.1164 23.6714 39.1248 23.6598L39.1405 23.6821C39.128 23.6853 39.1144 23.6895 39.0997 23.6948Z" fill="white"/>
<path d="M37.9298 10.5593C40.1995 10.5465 42.0064 8.67046 42.0001 6.3331C41.9938 3.98405 40.1576 2.12607 37.8481 2.13032C35.5133 2.13457 33.6824 4.01168 33.6929 6.38944C33.7034 8.74593 35.5605 10.572 37.9298 10.5593ZM37.9099 4.4815C38.9196 4.51232 39.701 5.3499 39.6821 6.38306C39.6643 7.43641 38.8389 8.23254 37.7915 8.20915C36.7912 8.18683 35.9899 7.33331 36.0119 6.31609C36.035 5.26912 36.8823 4.45067 37.9099 4.4815Z" fill="white"/>
<path d="M7.27769 10.5625C8.73781 10.571 9.84599 9.45171 9.8617 7.953C9.87637 6.49148 8.74619 5.33184 7.29236 5.31802C5.86785 5.30526 4.69578 6.48511 4.69264 7.93599C4.68845 9.39644 5.82805 10.554 7.27769 10.5625Z" fill="white"/>
<path d="M2.11924 17.5565C0.936691 17.5628 -0.0143746 18.5344 0.000289391 19.7227C0.0149534 20.8877 0.963924 21.8273 2.12238 21.823C3.29969 21.8188 4.2141 20.9047 4.22771 19.7174C4.24133 18.5131 3.30283 17.5511 2.11924 17.5565Z" fill="white"/>
<path d="M15.5787 31.4913C16.9111 31.4839 17.8946 30.4592 17.8957 29.0796C17.8978 27.6585 16.9184 26.6519 15.5431 26.6593C14.2003 26.6668 13.2168 27.6829 13.2168 29.0647C13.2168 30.4688 14.2202 31.4998 15.5787 31.4913Z" fill="white"/>
</svg>
